<?xml version="1.0" encoding="utf-8"?>
<!-- Generator: Adobe Illustrator 24.0.1, SVG Export Plug-In . SVG Version: 6.00 Build 0)  -->
<svg version="1.1" id="Layer_1" xmlns="http://www.w3.org/2000/svg" xmlns:xlink="http://www.w3.org/1999/xlink" x="0px" y="0px"
	 viewBox="0 0 141 141" style="enable-background:new 0 0 141 141;" xml:space="preserve">
<style type="text/css">
	.st0{opacity:0;}
	.st1{fill:#486ecc;}
	.st2{fill:#FFFFFF;}
	.st3{fill:none;stroke:#222222;stroke-width:6.8233;stroke-linecap:round;stroke-miterlimit:10;stroke-dasharray:500; stroke-dashoffset:500; animation:dash 2s linear forwards;}
		
		@keyframes dash{0%{stroke-dashoffset:500}100%{stroke-dashoffset:0}}
</style>
<g>
	<path class="st0" d="M99.59,141H41.41C18.64,141,0,122.36,0,99.59V41.41C0,18.64,18.64,0,41.41,0h58.17
		C122.36,0,141,18.64,141,41.41v58.17C141,122.36,122.36,141,99.59,141z"/>
</g>
<path class="st1" d="M82.74,91.53H48.57c-4.68,0-8.5-3.83-8.5-8.5V34.07c0-4.68,3.83-8.5,8.5-8.5h34.17c4.68,0,8.5,3.83,8.5,8.5
	v48.95C91.24,87.7,87.42,91.53,82.74,91.53z"/>
<path class="st2" d="M55.43,53.23v71.85v0.27l44.34-30.48V44.21c0-6.79-7.08-11-13.05-7.76L55.43,53.23z"/>
<path class="st3" d="M39.5,90.39V28.66c0-2.02,1.64-3.66,3.66-3.66h43.15c3.81,0,5.08,5.09,1.73,6.89L53.94,50.12
	c-1.19,0.64-1.93,1.88-1.93,3.23v71.59c0,2.95,3.31,4.69,5.73,3.01l43.86-30.21c0.99-0.68,1.58-1.81,1.58-3.01V43.2"/>
</svg>
